<svg xmlns="http://www.w3.org/2000/svg" xmlns:xlink="http://www.w3.org/1999/xlink" width="500" zoomAndPan="magnify" viewBox="0 0 375 374.999991" height="500" preserveAspectRatio="xMidYMid meet" version="1.0"><rect x="-37.5" width="450" fill="#ffffff" y="-37.499999" height="449.999989" fill-opacity="1"/><rect x="-37.5" width="450" fill="#ffffff" y="-37.499999" height="449.999989" fill-opacity="1"/><path fill="#1f58c7" d="M 145.152344 233.421875 C 145.046875 212.746094 144.863281 178.9375 144.785156 158.289062 C 144.683594 137.617188 160.140625 129.09375 177.789062 139.335938 C 195.464844 149.582031 224.894531 166.34375 242.570312 176.5625 C 260.21875 186.808594 260.582031 203.703125 243.039062 214.128906 C 225.46875 224.558594 195.804688 241.605469 178.234375 252.035156 C 160.6875 262.460938 145.253906 254.09375 145.152344 233.421875 Z M 145.152344 233.421875 " fill-opacity="1" fill-rule="nonzero"/><path fill="#1f58c7" d="M 107.976562 180.421875 C 109.175781 107.691406 127.894531 73.644531 151.226562 57.195312 C 164.257812 49.816406 174.972656 48.4375 184.984375 48.203125 C 192.363281 48.019531 199.453125 48.644531 206.28125 49.871094 C 227.972656 52.632812 275.625 66.972656 320.984375 108.835938 C 296.871094 47.261719 223.382812 5.214844 156.046875 15.015625 C 104.300781 22.523438 59.386719 64.9375 55.03125 157.457031 C 51.304688 236.808594 86.496094 287.199219 113.453125 280.292969 C 110.558594 242.257812 107.535156 206.335938 107.976562 180.421875 Z M 107.976562 180.421875 " fill-opacity="1" fill-rule="nonzero"/><path fill="#1f58c7" d="M 210.21875 269.628906 C 146.792969 305.238281 107.949219 306.257812 81.988281 294.394531 C 69.054688 286.835938 62.433594 278.3125 57.195312 269.785156 C 53.3125 263.503906 50.285156 257.089844 47.914062 250.546875 C 39.363281 230.421875 27.738281 182.039062 41.03125 121.765625 C 0 173.617188 0.730469 258.289062 43.117188 311.496094 C 75.703125 352.371094 134.957031 369.785156 217.050781 326.929688 C 287.488281 290.144531 313.269531 234.359375 293.691406 214.574219 C 262.355469 236.234375 232.847656 256.933594 210.21875 269.628906 Z M 210.21875 269.628906 " fill-opacity="1" fill-rule="nonzero"/><path fill="#1f58c7" d="M 236.941406 136.757812 C 299.0625 174.582031 319.003906 207.925781 321.375 236.390625 C 321.140625 251.382812 316.917969 261.3125 312.097656 270.074219 C 308.523438 276.539062 304.40625 282.324219 299.894531 287.617188 C 286.546875 304.925781 250.078125 338.789062 191.007812 356.726562 C 256.308594 367.050781 329.746094 324.949219 355.34375 261.886719 C 375 213.453125 361.132812 153.257812 283.523438 102.710938 C 216.945312 59.359375 155.683594 64.234375 148.019531 90.980469 C 182.273438 107.714844 214.78125 123.28125 236.941406 136.757812 Z M 236.941406 136.757812 " fill-opacity="1" fill-rule="nonzero"/></svg>