<svg width="16" height="16" viewBox="0 0 16 16" fill="none" xmlns="http://www.w3.org/2000/svg">
<path d="M6.09774 10.204C6.09295 9.24425 6.08462 7.67488 6.08108 6.7164C6.07647 5.75683 6.77794 5.36118 7.57886 5.83661C8.38102 6.31223 9.7166 7.09029 10.5188 7.56464C11.3197 8.04025 11.3362 8.82448 10.54 9.30844C9.74266 9.79258 8.39644 10.5839 7.59907 11.068C6.80276 11.552 6.10235 11.1636 6.09774 10.204Z" fill="#1F58C7"/>
<path d="M4.41076 7.74384C4.46518 4.36776 5.31467 2.78733 6.37353 2.02377C6.96491 1.68125 7.45117 1.61724 7.90552 1.60636C8.24039 1.59784 8.56214 1.62685 8.87202 1.68379C9.85641 1.81198 12.019 2.47763 14.0775 4.42089C12.9832 1.56266 9.64812 -0.389119 6.59228 0.0658249C4.24394 0.414331 2.20566 2.38316 2.008 6.67784C1.83888 10.3613 3.43593 12.7004 4.6593 12.3798C4.52794 10.6142 4.39073 8.94675 4.41076 7.74384Z" fill="#1F58C7"/>
<path d="M9.05076 11.8847C6.17237 13.5376 4.40957 13.585 3.23141 13.0343C2.64446 12.6834 2.34398 12.2878 2.10626 11.8919C1.93005 11.6004 1.79266 11.3026 1.68505 10.9989C1.297 10.0647 0.769438 7.81884 1.3727 5.021C-0.489379 7.4279 -0.456229 11.3583 1.46736 13.8281C2.94618 15.7255 5.63523 16.5339 9.36081 14.5445C12.5574 12.837 13.7274 10.2475 12.8389 9.32909C11.4168 10.3345 10.0777 11.2954 9.05076 11.8847Z" fill="#1F58C7"/>
<path d="M10.2635 5.71694C13.0827 7.47271 13.9876 9.0205 14.0952 10.3418C14.0846 11.0377 13.893 11.4987 13.6742 11.9054C13.512 12.2055 13.3252 12.474 13.1204 12.7197C12.5147 13.5232 10.8596 15.0951 8.17892 15.9277C11.1424 16.4069 14.4751 14.4526 15.6368 11.5253C16.5288 9.27707 15.8995 6.48285 12.3775 4.13651C9.35601 2.12417 6.57584 2.35046 6.22803 3.59199C7.78254 4.36879 9.2578 5.09137 10.2635 5.71694Z" fill="#1F58C7"/>
</svg>
